<svg xmlns="http://www.w3.org/2000/svg" width="320" height="120" viewBox="0 0 320 120" role="img" aria-labelledby="title desc">
  <title id="title">Logo Universidad Católica del Uruguay</title>
  <desc id="desc">Logotipo azul con cruz, mar y texto UCU</desc>
  <defs>
    <linearGradient id="shieldGradient" x1="0%" y1="0%" x2="0%" y2="100%">
      <stop offset="0%" stop-color="#0a2f6a" />
      <stop offset="100%" stop-color="#0c4a8a" />
    </linearGradient>
  </defs>
  <g fill="#0a2f6a">
    <path d="M48 10c-13.8 0-25 11.2-25 25v26c0 18.5 11 34.4 25 43.6 14-9.2 25-25 25-43.6V35C73 21.2 61.8 10 48 10Z" fill="url(#shieldGradient)"/>
    <path d="M48 20c-8.3 0-15 6.7-15 15v19.5c4.4-2.1 9.4-3.3 15-3.3s10.6 1.2 15 3.3V35c0-8.3-6.7-15-15-15Zm-1.6 6.2h3.3v6.7H56v3.3h-6.3V43h-3.3v-6.8H40v-3.3h6.4v-6.7Z" fill="#f6fbff"/>
    <path d="M48 68.4c-6.2 0-12.1 1.8-17 5 4.3 8.1 10.7 14.7 17 18.7 6.3-4 12.7-10.6 17-18.7-4.9-3.2-10.8-5-17-5Z" fill="#f6fbff"/>
  </g>
  <g fill="#0a2f6a" font-family="'Inter', 'Segoe UI', Arial, sans-serif" font-weight="700">
    <text font-size="58" x="95" y="70">UCU</text>
    <text font-size="20" x="205" y="48">Universidad</text>
    <text font-size="20" x="205" y="73">Católica del</text>
    <text font-size="20" x="205" y="98">Uruguay</text>
  </g>
</svg>
